<?xml version="1.0" encoding="UTF-8" standalone="no"?>
<svg
   xmlns:dc="http://purl.org/dc/elements/1.1/"
   xmlns:cc="http://creativecommons.org/ns#"
   xmlns:rdf="http://www.w3.org/1999/02/22-rdf-syntax-ns#"
   xmlns:svg="http://www.w3.org/2000/svg"
   xmlns="http://www.w3.org/2000/svg"
   xmlns:sodipodi="http://sodipodi.sourceforge.net/DTD/sodipodi-0.dtd"
   xmlns:inkscape="http://www.inkscape.org/namespaces/inkscape"
   sodipodi:docname="WaffleComponent_24x24.svg"
   inkscape:version="1.0 (4035a4fb49, 2020-05-01)"
   inkscape:export-ydpi="96"
   inkscape:export-xdpi="96"
   inkscape:export-filename="D:\Documentos\repos\Waffle\Resources\WaffleComponent_24x24.png"
   id="svg8"
   version="1.1"
   viewBox="0 0 6.3499999 6.3500002"
   height="24"
   width="24">
  <defs
     id="defs2" />
  <sodipodi:namedview
     inkscape:window-maximized="0"
     inkscape:window-y="183"
     inkscape:window-x="413"
     inkscape:window-height="978"
     inkscape:window-width="1923"
     inkscape:snap-page="true"
     units="px"
     showgrid="true"
     inkscape:document-rotation="0"
     inkscape:current-layer="layer1"
     inkscape:document-units="mm"
     inkscape:cy="45.5512"
     inkscape:cx="-9.5758094"
     inkscape:zoom="3.959798"
     inkscape:pageshadow="2"
     inkscape:pageopacity="0.0"
     borderopacity="1.0"
     bordercolor="#666666"
     pagecolor="#ffffff"
     id="base">
    <inkscape:grid
       empspacing="4"
       id="grid1923"
       type="xygrid" />
  </sodipodi:namedview>
  <metadata
     id="metadata5">
    <rdf:RDF>
      <cc:Work
         rdf:about="">
        <dc:format>image/svg+xml</dc:format>
        <dc:type
           rdf:resource="http://purl.org/dc/dcmitype/StillImage" />
        <dc:title></dc:title>
      </cc:Work>
    </rdf:RDF>
  </metadata>
  <g
     id="layer1"
     inkscape:groupmode="layer"
     inkscape:label="Capa 1">
    <circle
       r="2.9104166"
       cy="3.175"
       cx="3.175"
       id="path1921"
       style="fill:#f6c869;stroke-width:0.26458333;stroke-miterlimit:4;stroke-dasharray:none;stroke:#dc8330;stroke-opacity:1;fill-opacity:1" />
    <path
       transform="scale(0.26458333)"
       d="M 11 3.0566406 A 8.9999996 8.9999996 0 0 0 8 3.9394531 L 8 6 L 11 6 L 11 3.0566406 z M 13 3.0566406 L 13 6 L 16 6 L 16 3.9394531 A 8.9999996 8.9999996 0 0 0 13 3.0566406 z M 6 5.2910156 A 8.9999996 8.9999996 0 0 0 5.2910156 6 L 6 6 L 6 5.2910156 z M 18 5.2910156 L 18 6 L 18.708984 6 A 8.9999996 8.9999996 0 0 0 18 5.2910156 z M 3.9394531 8 A 8.9999996 8.9999996 0 0 0 3.0566406 11 L 6 11 L 6 8 L 3.9394531 8 z M 8 8 L 8 11 L 11 11 L 11 8 L 8 8 z M 13 8 L 13 11 L 16 11 L 16 8 L 13 8 z M 18 8 L 18 11 L 20.943359 11 A 8.9999996 8.9999996 0 0 0 20.060547 8 L 18 8 z M 3.0566406 13 A 8.9999996 8.9999996 0 0 0 3.9394531 16 L 6 16 L 6 13 L 3.0566406 13 z M 8 13 L 8 16 L 11 16 L 11 13 L 8 13 z M 13 13 L 13 16 L 16 16 L 16 13 L 13 13 z M 18 13 L 18 16 L 20.060547 16 A 8.9999996 8.9999996 0 0 0 20.943359 13 L 18 13 z M 5.2910156 18 A 8.9999996 8.9999996 0 0 0 6 18.708984 L 6 18 L 5.2910156 18 z M 8 18 L 8 20.060547 A 8.9999996 8.9999996 0 0 0 11 20.943359 L 11 18 L 8 18 z M 13 18 L 13 20.943359 A 8.9999996 8.9999996 0 0 0 16 20.060547 L 16 18 L 13 18 z M 18 18 L 18 18.708984 A 8.9999996 8.9999996 0 0 0 18.708984 18 L 18 18 z "
       style="fill:#dc8330;fill-opacity:1;stroke:none;stroke-width:1.00000001;stroke-opacity:1;stroke-miterlimit:4;stroke-dasharray:none"
       id="rect2782" />
  </g>
</svg>
